<?xml version="1.0" standalone="no"?>
<!DOCTYPE svg PUBLIC "-//W3C//DTD SVG 20010904//EN"
 "http://www.w3.org/TR/2001/REC-SVG-20010904/DTD/svg10.dtd">
<svg version="1.0" xmlns="http://www.w3.org/2000/svg"
 width="200.000000pt" height="80.000000pt" viewBox="0 0 200.000000 80.000000"
 preserveAspectRatio="xMidYMid meet">

<g transform="translate(0.000000,80.000000) scale(0.100000,-0.100000)"
fill="#000000" stroke="none">
<path d="M0 784 c0 -14 3 -14 15 -4 19 16 19 20 0 20 -8 0 -15 -7 -15 -16z"/>
<path d="M749 796 c-2 -2 -161 -6 -353 -10 -213 -3 -353 -10 -361 -16 -9 -7
-14 -101 -19 -353 -4 -188 -10 -357 -13 -374 l-5 -33 1001 0 1001 0 0 395 0
395 -623 0 c-343 0 -626 -2 -628 -4z m1212 -26 c18 -10 19 -25 19 -357 0 -308
-2 -348 -17 -365 -15 -17 -43 -18 -517 -16 l-501 3 494 2 c443 3 497 5 513 20
17 15 18 40 18 353 0 267 -3 340 -13 348 -8 7 -69 13 -143 15 l-129 3 128 2
c74 1 137 -2 148 -8z m-754 -77 c0 -10 32 -66 71 -125 40 -59 72 -111 72 -115
0 -11 -60 -44 -69 -38 -15 9 -176 247 -173 256 1 5 -32 9 -73 9 l-76 0 39 -57
c21 -32 55 -84 75 -116 l37 -57 -28 -18 c-15 -9 -28 -23 -30 -30 -5 -26 -184
-272 -198 -272 -7 0 28 59 81 136 52 74 95 137 95 140 0 3 -39 62 -87 131 -49
70 -87 130 -86 135 2 4 -29 8 -67 8 -39 0 -70 -2 -70 -5 0 -2 32 -52 70 -111
39 -58 70 -109 70 -113 0 -4 -11 -13 -24 -19 -18 -8 -27 -7 -42 6 -17 16 -17
16 -5 -1 8 -9 11 -20 7 -24 -3 -3 -8 -4 -10 -2 -20 24 -186 271 -186 278 0 5
-6 12 -12 14 -7 3 130 6 304 6 296 1 317 0 315 -16z m-490 -427 c-79 -116
-113 -155 -122 -144 -6 8 190 278 201 278 7 0 -29 -60 -79 -134z m517 37 c-38
-54 -80 -115 -94 -135 -14 -21 -31 -37 -38 -38 -8 0 17 44 54 98 38 53 80 114
94 134 14 21 31 37 38 38 8 0 -17 -44 -54 -97z"/>
<path d="M610 686 c0 -2 8 -10 18 -17 15 -13 16 -12 3 4 -13 16 -21 21 -21 13z"/>
<path d="M750 490 c12 -16 24 -30 26 -30 3 0 -4 14 -16 30 -12 17 -24 30 -26
30 -3 0 4 -13 16 -30z"/>
<path d="M1250 476 c0 -2 8 -10 18 -17 15 -13 16 -12 3 4 -13 16 -21 21 -21
13z"/>
</g>
</svg>
