<?xml version="1.0" standalone="no"?>
<!DOCTYPE svg PUBLIC "-//W3C//DTD SVG 20010904//EN"
 "http://www.w3.org/TR/2001/REC-SVG-20010904/DTD/svg10.dtd">
<svg version="1.0" xmlns="http://www.w3.org/2000/svg"
 width="200.000000pt" height="80.000000pt" viewBox="0 0 200.000000 80.000000"
 preserveAspectRatio="xMidYMid meet">
<metadata>
Created by potrace 1.15, written by Peter Selinger 2001-2017
</metadata>
<g transform="translate(0.000000,80.000000) scale(0.100000,-0.100000)"
fill="#000000" stroke="none">
<path d="M37 761 c-15 -18 -10 -690 5 -708 8 -10 210 -13 949 -13 926 0 939 0
959 20 19 19 20 33 20 355 0 314 -1 335 -18 344 -12 6 -372 11 -961 13 -800 3
-944 1 -954 -11z m1279 -199 c55 -81 96 -149 90 -151 -6 -2 -14 -9 -18 -15 -4
-6 -46 -68 -95 -138 l-88 -127 -170 -1 c-206 -2 -298 0 -304 6 -2 2 22 4 55 4
l59 1 91 132 92 132 -63 90 c-34 50 -77 111 -94 138 -32 47 -33 47 -89 47 -46
0 -53 -2 -40 -12 8 -7 52 -66 97 -131 68 -97 80 -120 69 -131 -7 -7 -54 -72
-103 -143 l-90 -131 -50 -4 c-27 -2 -59 -8 -69 -13 -11 -5 24 55 84 142 l102
150 -101 146 c-56 80 -101 148 -101 151 0 3 143 6 318 6 l317 -1 101 -147z"/>
<path d="M995 663 c8 -10 51 -69 94 -132 63 -91 77 -117 67 -125 -8 -6 -53
-67 -101 -136 l-87 -125 53 -3 c28 -2 57 -1 64 2 20 7 187 255 182 269 -2 7
-41 65 -86 128 -44 64 -81 122 -81 128 0 7 -22 11 -60 11 -56 0 -59 -1 -45
-17z"/>
</g>
</svg>
