<svg id="Слой_1" data-name="Слой 1" xmlns="http://www.w3.org/2000/svg" viewBox="0 0 980 977.93"><defs><style>.cls-1{fill:#e6e6e6;}.cls-2{font-size:400px;font-family:Verdana-Bold, Verdana;font-weight:700;}.cls-2,.cls-3{fill:#212121;}</style></defs><title>cashout</title><path class="cls-1" d="M691.1,383.2C526,383.2,392.2,517,392.2,682.1S526,981,691.1,981,990,847.2,990,682.1,856.2,383.2,691.1,383.2Z" transform="translate(-10 -13.57)"/><path class="cls-1" d="M494.1,420.5a716.12,716.12,0,0,1-116,9.4c-175.2,0-321.5-60.8-358.7-142.1-6,13-9.4,26.6-9.4,40.5C10,429.2,174.8,511,378.1,511c9.9,0,19.6-.4,29.2-.7A318.65,318.65,0,0,1,494.1,420.5Z" transform="translate(-10 -13.57)"/><path class="cls-1" d="M736,370.2c6.4-13.4,10.1-27.4,10.1-41.8,0-14-3.4-27.5-9.4-40.5-13.2,28.9-40.5,55.2-77.7,77.1,5.2-.3,10.4-.8,15.7-.8A310.81,310.81,0,0,1,736,370.2Z" transform="translate(-10 -13.57)"/><path class="cls-1" d="M378.1,550C202.9,550,56.6,489.3,19.4,408c-6,13-9.4,26.6-9.4,40.5,0,98,155.7,177.7,350.9,182.2a318.28,318.28,0,0,1,24.6-80.8C383.1,549.9,380.6,550,378.1,550Z" transform="translate(-10 -13.57)"/><path class="cls-1" d="M357.2,669.7c-165.8-4.6-302-63.6-337.8-141.6-6,13-9.4,26.6-9.4,40.5,0,98.5,157.4,178.6,354.3,182.2a318.82,318.82,0,0,1-7.7-68.8C356.6,677.9,357,673.9,357.2,669.7Z" transform="translate(-10 -13.57)"/><path class="cls-1" d="M19.4,648.3c-6,13-9.4,26.6-9.4,40.5,0,100.8,164.8,182.6,368.1,182.6,13.7,0,27.1-.4,40.4-1.1a319.5,319.5,0,0,1-42.5-80C201.7,789.8,56.5,729.3,19.4,648.3Z" transform="translate(-10 -13.57)"/><path class="cls-1" d="M450.5,906.8c-23.4,2.3-47.6,3.7-72.4,3.7-175.2,0-321.5-60.8-358.7-142.1-6,13-9.4,26.6-9.4,40.5,0,100.8,164.8,182.6,368.1,182.6,59.9,0,116.3-7.3,166.3-19.9A315.29,315.29,0,0,1,450.5,906.8Z" transform="translate(-10 -13.57)"/><ellipse class="cls-1" cx="368.05" cy="203.23" rx="368.05" ry="182.6"/><text class="cls-2" transform="translate(251.66 304) scale(1 0.75)">₽</text><rect class="cls-3" x="512.58" y="615.25" width="337.05" height="106.55"/></svg>