<svg id="Слой_1" data-name="Слой 1" xmlns="http://www.w3.org/2000/svg" viewBox="0 0 302.86 122.74"><defs><style>.cls-1{fill:#f5f5f5}</style><linearGradient id="Безымянный_градиент_26" x1="46.68" y1="92.4" x2="160.48" y2="92.4" gradientTransform="matrix(1 0 -.27 1 28.91 0)" gradientUnits="userSpaceOnUse"><stop offset="0" stop-color="#62b2e2" stop-opacity="0"/><stop offset=".09" stop-color="#5fb1e2" stop-opacity=".04"/><stop offset=".23" stop-color="#57aee0" stop-opacity=".16"/><stop offset=".42" stop-color="#4aaade" stop-opacity=".36"/><stop offset=".63" stop-color="#38a4db" stop-opacity=".62"/><stop offset=".87" stop-color="#219dd7" stop-opacity=".96"/><stop offset=".9" stop-color="#1e9cd7"/></linearGradient></defs><path class="cls-1" d="M2 52.2L15.54 1.8H32q12 0 17.28 5.33a13.92 13.92 0 0 1 4 10.29 18 18 0 0 1-6.87 14.8q-6.89 5.51-18.18 5.51h-8.3L16 52.2zm20.81-25.35h5.25c3.41 0 6.08-.7 8-2.12A6.73 6.73 0 0 0 38.94 19a4.81 4.81 0 0 0-1.44-3.53c-1.3-1.3-3.29-1.94-6-1.94h-5.16zM50.38 52.2L63.92 1.8H78L67.74 40h24l-3.27 12.2zM90.34 52.2l35.07-50.76h13.68l7.85 50.76h-14.69l-1.23-9h-19.44l-6 9zm28.3-19.87h11.23l-1.8-14.48zM162.92 52.2l5.25-19.51L158 1.8h15l5 18.86L193.23 1.8h16.7l-28.15 32.4-4.78 18zM199.35 52.2l13.54-50.4h40.39L250 13.68h-26.5l-2.09 7.63h24.09l-2.95 11H218.5l-2.16 8h26.93L240.1 52.2zM247.52 52.2l13.53-50.4h19q12.1 0 17.35 5.26a13.87 13.87 0 0 1 3.89 10.29 17.09 17.09 0 0 1-3.78 11.13q-3.78 4.64-11.34 6.73l7.78 17h-15.4l-6.7-15.26h-6.19l-4.1 15.26zm21-26.21h8a13.43 13.43 0 0 0 7.56-1.87A5.82 5.82 0 0 0 286.9 19a4.92 4.92 0 0 0-1.29-3.39c-1.16-1.15-3.22-1.72-6.2-1.72h-7.56z"/><path d="M208.7 118.29q-9.72 0-15-4.64t-5.33-13a32.38 32.38 0 0 1 1.15-8.06L196.39 67h14.11l-7.13 26.6a18.41 18.41 0 0 0-.72 4.75 7.08 7.08 0 0 0 2 5.4 8.13 8.13 0 0 0 5.8 1.94 9.17 9.17 0 0 0 6.77-2.66q2.73-2.59 4.24-8.35L229 67h14.11l-8 29.81q-2.66 9.86-7.85 15-6.47 6.48-18.56 6.48z" fill="#62b2e2"/><path class="cls-1" d="M237.93 117.36L251.47 67H268q12 0 17.28 5.33a13.92 13.92 0 0 1 4 10.29 18 18 0 0 1-6.87 14.8q-6.88 5.5-18.18 5.5h-8.28L252 117.36zM258.74 92H264c3.41 0 6.08-.7 8-2.12a6.75 6.75 0 0 0 2.88-5.72 4.79 4.79 0 0 0-1.44-3.53q-1.95-2-6-2h-5.18z"/><path fill="url(#Безымянный_градиент_26)" d="M157 117.9H44l14.47-51h113l-14.47 51z"/></svg>