<svg id="Слой_1" data-name="Слой 1" xmlns="http://www.w3.org/2000/svg" viewBox="0 0 50 50"><defs><style>.cls-1{fill:#15b0bf;}.cls-2{fill:#2d5872;}.cls-3{fill:#fff;}.cls-4{fill:#ffc55c;}.cls-5{fill:#ffb35c;}</style></defs><title>mail</title><circle class="cls-1" cx="25" cy="25" r="25"/><polygon class="cls-2" points="29.09 9.15 20.91 9.15 17.96 11.97 32.04 11.97 29.09 9.15"/><polygon class="cls-2" points="13.93 15.82 10.81 18.8 13.93 21.57 13.93 15.82"/><polygon class="cls-2" points="34.8 22.7 39.19 18.8 34.8 14.61 34.8 22.7"/><polygon class="cls-3" points="17.96 11.97 13.93 11.97 13.93 15.82 13.93 21.57 20.83 27.7 29.17 27.7 34.8 22.7 34.8 14.61 34.8 11.97 32.04 11.97 17.96 11.97"/><polygon class="cls-4" points="29.17 27.7 20.83 27.7 10.81 36.6 39.19 36.6 29.17 27.7"/><polygon class="cls-5" points="20.83 27.7 13.93 21.57 10.81 18.8 10.81 27.7 10.81 36.6 20.83 27.7"/><polygon class="cls-5" points="29.17 27.7 39.19 36.6 39.19 27.7 39.19 18.8 34.8 22.7 29.17 27.7"/></svg>