<svg id="Слой_1" data-name="Слой 1" xmlns="http://www.w3.org/2000/svg" viewBox="0 0 25 25"><defs><style>.cls-1{fill:#e6e6e6;}</style></defs><title>messages</title><path class="cls-1" d="M21.83.62H3.17A2.64,2.64,0,0,0,.6,3.31v12A2.64,2.64,0,0,0,3.17,18H13.1l6.54,5.59V18h2.19a2.64,2.64,0,0,0,2.57-2.69v-12A2.64,2.64,0,0,0,21.83.62ZM19.5,11a2,2,0,1,1,2-2A2,2,0,0,1,19.5,11ZM3.5,9a2,2,0,1,1,2,2A2,2,0,0,1,3.5,9Zm7,0a2,2,0,1,1,2,2A2,2,0,0,1,10.5,9Z"/><path class="cls-1" d="M21.67,0H3.18A3.26,3.26,0,0,0,0,3.32V15.38A3.26,3.26,0,0,0,3.18,18.7h9.1L20,25V18.7h1.67A3.33,3.33,0,0,0,25,15.38V3.32A3.33,3.33,0,0,0,21.67,0Zm2.08,15.38a2,2,0,0,1-2,2.07h-3v4.91l-5.62-4.91H3.19a2,2,0,0,1-1.94-2.07V3.32a2,2,0,0,1,2-2.07H21.78a2,2,0,0,1,2,2.07Z"/></svg>