<svg id="Слой_1" data-name="Слой 1" xmlns="http://www.w3.org/2000/svg" viewBox="0 0 25 25.05">
  <defs>
    <style>
      .cls-1 {
        fill: none;
      }

      .cls-2 {
        fill: #efefef;
      }
    </style>
  </defs>
  <title>messages</title>
  <g>
    <path class="cls-1" d="M21.83.62H3.17A2.64,2.64,0,0,0,.6,3.32v12a2.64,2.64,0,0,0,2.57,2.7H13.1l6.54,5.6v-5.6h2.19a2.64,2.64,0,0,0,2.57-2.7v-12A2.64,2.64,0,0,0,21.83.62Z"/>
    <path class="cls-2" d="M20,25.05l-7.72-6.31H3.18A3.26,3.26,0,0,1,0,15.41V3.33A3.26,3.26,0,0,1,3.18,0H21.67A3.33,3.33,0,0,1,25,3.33V15.41a3.33,3.33,0,0,1-3.33,3.33H20ZM3.22,1.25a2,2,0,0,0-2,2.08V15.42a2,2,0,0,0,1.94,2.07h9.94l5.62,4.92V17.49h3a2,2,0,0,0,2-2.08V3.33a2,2,0,0,0-2-2.08Z"/>
  </g>
  <circle class="cls-2" cx="6.5" cy="9.5" r="1.5"/>
  <circle class="cls-2" cx="12.5" cy="9.5" r="1.5"/>
  <circle class="cls-2" cx="18.5" cy="9.5" r="1.5"/>
</svg>
